<?xml version="1.0" encoding="UTF-8"?>
<svg xmlns="http://www.w3.org/2000/svg" xmlns:xlink="http://www.w3.org/1999/xlink" width="16pt" height="16pt" viewBox="0 0 16 16" version="1.1">
<g id="surface18362925">
<path style="fill-rule:evenodd;fill:rgb(18.039216%,80%,44.313725%);fill-opacity:1;stroke-width:10;stroke-linecap:butt;stroke-linejoin:round;stroke:rgb(100%,100%,100%);stroke-opacity:1;stroke-miterlimit:10;" d="M 93.154225 14.324446 L 93.154225 78.845775 L 157.675554 78.845775 L 157.675554 93.154225 L 93.154225 93.154225 L 93.154225 157.675554 L 78.845775 157.675554 L 78.845775 93.154225 L 14.324446 93.154225 L 14.324446 78.845775 L 78.845775 78.845775 L 78.845775 14.324446 Z M 93.154225 14.324446 " transform="matrix(0.087907,0,0,0.087907,0.44,0.44)"/>
<path style=" stroke:none;fill-rule:evenodd;fill:rgb(18.039216%,80%,44.313725%);fill-opacity:1;" d="M 7.371094 1.699219 L 7.371094 7.371094 L 1.699219 7.371094 L 1.699219 8.628906 L 7.371094 8.628906 L 7.371094 14.300781 L 8.628906 14.300781 L 8.628906 8.628906 L 14.300781 8.628906 L 14.300781 7.371094 L 8.628906 7.371094 L 8.628906 1.699219 Z M 7.371094 1.699219 "/>
</g>
</svg>
