<?xml version="1.0" encoding="UTF-8"?>
<svg xmlns="http://www.w3.org/2000/svg" xmlns:xlink="http://www.w3.org/1999/xlink" width="12pt" height="12pt" viewBox="0 0 12 12" version="1.1">
<g id="surface18930651">
<path style="fill-rule:evenodd;fill:rgb(18.039216%,80%,44.313725%);fill-opacity:1;stroke-width:10;stroke-linecap:butt;stroke-linejoin:round;stroke:rgb(0%,0%,0%);stroke-opacity:1;stroke-miterlimit:10;" d="M 93.169037 14.309634 L 93.169037 78.830963 L 157.690366 78.830963 L 157.690366 93.169037 L 93.169037 93.169037 L 93.169037 157.690366 L 78.830963 157.690366 L 78.830963 93.169037 L 14.309634 93.169037 L 14.309634 78.830963 L 78.830963 78.830963 L 78.830963 14.309634 Z M 93.169037 14.309634 " transform="matrix(0.0659302,0,0,0.0659302,0.33,0.33)"/>
<path style=" stroke:none;fill-rule:evenodd;fill:rgb(18.039216%,80%,44.313725%);fill-opacity:1;" d="M 5.527344 1.273438 L 5.527344 5.527344 L 1.273438 5.527344 L 1.273438 6.472656 L 5.527344 6.472656 L 5.527344 10.726562 L 6.472656 10.726562 L 6.472656 6.472656 L 10.726562 6.472656 L 10.726562 5.527344 L 6.472656 5.527344 L 6.472656 1.273438 Z M 5.527344 1.273438 "/>
</g>
</svg>
